<svg width="24" height="22" viewBox="0 0 24 22" fill="none" xmlns="http://www.w3.org/2000/svg">
<mask id="path-1-inside-1_102_539" fill="white">
<path d="M0 11C0 20.0585 2.118 22 12 22C21.882 22 24 20.0585 24 11C24 1.9415 21.882 0 12 0C5.49507 0 2.35433 0.841266 0.96739 4C0.247352 5.63987 0 7.90435 0 11Z"/>
</mask>
<path d="M22.2361 3.35464C22.5925 2.93276 23.2235 2.8797 23.6454 3.23612C24.0672 3.59255 24.1203 4.22348 23.7639 4.64536L22.2361 3.35464ZM12 11L12.0013 12L12 11ZM0.204068 4.64602C-0.152718 4.22445 -0.100199 3.59346 0.321373 3.23668C0.742944 2.87989 1.37393 2.93241 1.73071 3.35398L0.204068 4.64602ZM23 4C23.7639 4.64536 23.7637 4.64555 23.7635 4.64576C23.7635 4.64586 23.7633 4.6461 23.7631 4.64632C23.7627 4.64674 23.7623 4.64727 23.7617 4.64791C23.7606 4.64918 23.7592 4.65088 23.7574 4.65299C23.7538 4.65722 23.7488 4.66311 23.7424 4.67061C23.7295 4.68561 23.7111 4.70705 23.6872 4.73451C23.6395 4.78943 23.5701 4.86846 23.4807 4.96815C23.3019 5.16745 23.0428 5.4498 22.7165 5.78758C22.0651 6.46189 21.1399 7.36336 20.047 8.26783C18.957 9.16993 17.6805 10.0914 16.3261 10.7917C14.9793 11.488 13.4933 11.998 12.0013 12L11.9987 10C13.0526 9.99859 14.2146 9.63188 15.4076 9.01507C16.5931 8.40217 17.7484 7.5741 18.7719 6.72705C19.7925 5.88238 20.6626 5.03512 21.2781 4.398C21.5852 4.08006 21.8274 3.81602 21.9917 3.63286C22.0738 3.54131 22.1363 3.47009 22.1776 3.42256C22.1983 3.3988 22.2136 3.38098 22.2234 3.36952C22.2283 3.36378 22.2319 3.35964 22.234 3.35715C22.2351 3.3559 22.2358 3.35506 22.2361 3.35464C22.2363 3.35443 22.2364 3.35432 22.2364 3.35432C22.2364 3.35432 22.2363 3.3544 22.2363 3.3544C22.2362 3.35451 22.2361 3.35464 23 4ZM12.0013 12C10.5062 12.002 9.01627 11.4938 7.66562 10.7981C6.30741 10.0986 5.02701 9.17661 3.93351 8.27365C2.83713 7.36832 1.9088 6.46556 1.25513 5.79017C0.927685 5.45186 0.667648 5.16902 0.488278 4.96937C0.39856 4.8695 0.328923 4.79034 0.281024 4.73532C0.257072 4.70781 0.238546 4.68633 0.225653 4.6713C0.219207 4.66379 0.214167 4.65789 0.210562 4.65366C0.208759 4.65154 0.207314 4.64984 0.20623 4.64857C0.205689 4.64793 0.205238 4.6474 0.204877 4.64697C0.204697 4.64676 0.204494 4.64652 0.204404 4.64642C0.204225 4.6462 0.204068 4.64602 0.96739 4C1.73071 3.35398 1.7306 3.35385 1.73051 3.35374C1.73051 3.35375 1.73045 3.35367 1.73045 3.35367C1.73045 3.35367 1.73054 3.35377 1.73072 3.35398C1.73107 3.35441 1.73179 3.35525 1.73285 3.3565C1.73499 3.359 1.73853 3.36315 1.74346 3.3689C1.75332 3.38039 1.76872 3.39825 1.78944 3.42205C1.8309 3.46967 1.89365 3.54104 1.97605 3.63275C2.14091 3.81626 2.38402 4.08078 2.69225 4.39925C3.30992 5.03743 4.18301 5.88595 5.20696 6.73147C6.23379 7.57937 7.39263 8.40783 8.58141 9.02013C9.77774 9.63631 10.9425 10.0014 11.9987 10L12.0013 12ZM0.96739 4L-0.863859 3.19593L0.96739 4ZM2 11C2 15.5833 2.59553 17.46 3.6457 18.4226C4.17019 18.9034 4.97937 19.3151 6.35527 19.5954C7.7449 19.8785 9.57096 20 12 20V24C9.48804 24 7.3436 23.8789 5.55679 23.5148C3.75625 23.148 2.18306 22.5082 0.942801 21.3712C-1.53653 19.0985 -2 15.4752 -2 11H2ZM12 20C14.429 20 16.2551 19.8785 17.6447 19.5954C19.0206 19.3151 19.8298 18.9034 20.3543 18.4226C21.4045 17.46 22 15.5833 22 11H26C26 15.4752 25.5365 19.0985 23.0572 21.3712C21.8169 22.5082 20.2437 23.148 18.4432 23.5148C16.6564 23.8789 14.512 24 12 24V20ZM22 11C22 6.41667 21.4045 4.54003 20.3543 3.57737C19.8298 3.09659 19.0206 2.68495 17.6447 2.40464C16.2551 2.12155 14.429 2 12 2V-2C14.512 -2 16.6564 -1.87886 18.4432 -1.51485C20.2437 -1.14804 21.8169 -0.50815 23.0572 0.628754C25.5365 2.90147 26 6.52483 26 11H22ZM12 2C8.77322 2 6.64754 2.2174 5.21093 2.70811C3.91648 3.15026 3.24554 3.78625 2.79864 4.80407L-0.863859 3.19593C0.0761785 1.05501 1.66908 -0.308994 3.91797 -1.07716C6.0247 -1.79677 8.72184 -2 12 -2V2ZM2.79864 4.80407C2.25834 6.03459 2 7.93498 2 11H-2C-2 7.87373 -1.76364 5.24516 -0.863859 3.19593L2.79864 4.80407Z" fill="#222222" fill-opacity="0.5" mask="url(#path-1-inside-1_102_539)"/>
</svg>
