<svg width="98" height="98" viewBox="0 0 98 98" fill="none" xmlns="http://www.w3.org/2000/svg">
<rect width="98" height="98" fill="#E5E5E5"/>
<g clip-path="url(#clip0_6_9)">
<rect width="1440" height="2400" transform="translate(-821 -991)" fill="#FAF4F2"/>
<circle cx="49" cy="49" r="49" fill="#222222" fill-opacity="0.1"/>
<path d="M64.7065 55.9858L44.5129 36.9966C44.1581 36.6629 43.7295 36.4178 43.262 36.281C42.7945 36.1443 42.3013 36.1198 41.8226 36.2096L35.402 37.4123L31.1744 35.9182L23.5281 50.3634C23.5281 50.3634 29.7764 58.3416 31.9614 60.2945C34.1464 62.2475 46.0587 67.0593 49.9651 68.0748C53.8715 69.0902 54.1271 65.4778 54.1271 65.4778C57.3286 66.0242 58.0548 62.8728 58.0548 62.8728C62.8987 63.2634 62.0391 59.9824 62.0391 59.9824C63.7263 60.3794 64.6286 59.8799 65.1088 59.1719C65.4294 58.679 65.5649 58.0885 65.4913 57.5052C65.4176 56.9218 65.1396 56.3835 64.7065 55.9858Z" fill="#DDB087"/>
<path d="M64.4594 37.5605L62.0375 38.2632L51.9393 37.109C51.385 37.0455 50.824 37.0749 50.2794 37.196L43.8934 38.6154C42.6337 38.895 41.53 39.649 40.8114 40.7209C39.9758 41.9663 38.8809 43.6609 38.2235 44.925C38.1542 45.0572 38.1161 45.2035 38.1122 45.3528C38.1082 45.502 38.1386 45.6501 38.2009 45.7858C38.2632 45.9214 38.3558 46.041 38.4716 46.1352C38.5873 46.2295 38.7232 46.2959 38.8686 46.3294C40.5761 46.7195 43.8182 47.0076 45.7113 44.2788L50.0083 43.8103L64.8761 56.1613L71.8832 51.9353L73.7582 49.826L64.4594 37.5605Z" fill="#F0C191"/>
<path d="M47.6963 63.6091C47.2612 63.3688 46.7485 63.3112 46.2709 63.4488C45.7933 63.5865 45.3899 63.9083 45.1495 64.3433L43.9223 66.5694C43.8032 66.7849 43.7276 67.0217 43.7 67.2664C43.6725 67.511 43.6933 67.7587 43.7614 67.9953C43.8296 68.2319 43.9436 68.4528 44.0971 68.6453C44.2506 68.8378 44.4405 68.9982 44.656 69.1173C44.8714 69.2364 45.1083 69.3119 45.3529 69.3395C45.5976 69.3671 45.8453 69.3463 46.0818 69.2781C46.3184 69.21 46.5393 69.0959 46.7318 68.9425C46.9243 68.789 47.0847 68.5991 47.2038 68.3836L48.4311 66.157C48.5503 65.9415 48.6258 65.7046 48.6534 65.4598C48.681 65.2151 48.6601 64.9674 48.5918 64.7307C48.5236 64.4941 48.4094 64.2732 48.2557 64.0808C48.1021 63.8883 47.912 63.728 47.6963 63.6091Z" fill="#F0C191"/>
<path d="M44.529 60.8034C44.2698 60.6603 43.985 60.5696 43.6908 60.5366C43.3966 60.5035 43.0987 60.5287 42.8143 60.6108C42.5298 60.6928 42.2643 60.8301 42.0329 61.0148C41.8015 61.1994 41.6088 61.4279 41.4656 61.687L39.9865 64.3646C39.6974 64.8882 39.6281 65.5052 39.794 66.0799C39.9598 66.6545 40.3471 67.1398 40.8707 67.4289C41.3943 67.7181 42.0113 67.7873 42.586 67.6215C43.1607 67.4557 43.646 67.0684 43.9351 66.5448L45.4104 63.8673C45.6997 63.344 45.7693 62.7274 45.604 62.1528C45.4387 61.5783 45.052 61.0929 44.529 60.8034Z" fill="#F0C191"/>
<path d="M40.5819 58.6231C40.0586 58.334 39.4419 58.2647 38.8674 58.4303C38.2929 58.5959 37.8078 58.9829 37.5186 59.5062L36.0395 62.1843C35.7504 62.7079 35.6811 63.3249 35.8469 63.8996C36.0127 64.4743 36.4001 64.9595 36.9237 65.2486C37.4473 65.5378 38.0643 65.607 38.639 65.4412C39.2137 65.2754 39.6989 64.8881 39.9881 64.3645L41.4672 61.687C41.6102 61.4277 41.7008 61.1427 41.7338 60.8484C41.7667 60.5541 41.7413 60.2562 41.6591 59.9717C41.5769 59.6872 41.4395 59.4216 41.2547 59.1903C41.0698 58.9589 40.8412 58.7661 40.5819 58.6231Z" fill="#F0C191"/>
<path d="M36.6351 56.4429C36.1118 56.1538 35.495 56.0845 34.9205 56.2501C34.3461 56.4157 33.8609 56.8027 33.5718 57.326L32.0921 60.0036C31.9489 60.2628 31.8582 60.5477 31.8251 60.8421C31.7921 61.1364 31.8173 61.4344 31.8994 61.7189C31.9814 62.0035 32.1188 62.2691 32.3035 62.5007C32.4882 62.7322 32.7168 62.925 32.976 63.0682C33.2353 63.2114 33.5202 63.3021 33.8145 63.3352C34.1089 63.3683 34.4068 63.343 34.6914 63.261C34.976 63.1789 35.2416 63.0416 35.4731 62.8568C35.7046 62.6721 35.8975 62.4436 36.0407 62.1843L37.5198 59.5063C37.6628 59.247 37.7535 58.9622 37.7864 58.6679C37.8194 58.3737 37.7941 58.0758 37.7119 57.7913C37.6298 57.5069 37.4924 57.2414 37.3076 57.01C37.1229 56.7787 36.8943 56.586 36.6351 56.4429Z" fill="#F0C191"/>
<path d="M71.2088 30.6259L63.0853 35.7692C62.6714 36.0312 62.5484 36.5792 62.8104 36.993L72.9034 52.9343C73.1654 53.3482 73.7134 53.4713 74.1272 53.2092L82.2507 48.066C82.6646 47.8039 82.7877 47.256 82.5256 46.8421L72.4326 30.9008C72.1706 30.487 71.6227 30.3639 71.2088 30.6259Z" fill="#F26176"/>
<path d="M82.5176 46.8444L79.7488 42.4722C79.7344 42.486 79.7189 42.4988 79.704 42.5127L79.8219 42.6995C79.9473 42.8983 79.9887 43.1387 79.9372 43.368C79.8857 43.5973 79.7455 43.7969 79.5471 43.923L71.4254 49.0657C71.2738 49.1608 71.097 49.2078 70.9182 49.2007C70.7394 49.1936 70.5669 49.1326 70.4233 49.0257L72.897 52.9363C73.0231 53.1348 73.2226 53.2751 73.452 53.3266C73.6814 53.3782 73.9218 53.3366 74.1206 53.2111L82.2428 48.0689C82.4411 47.9425 82.5813 47.7428 82.6328 47.5133C82.6843 47.2839 82.6429 47.0434 82.5176 46.8444Z" fill="#E95A6A"/>
<path d="M25.7724 29.7122L14.5285 44.8611C14.2366 45.2544 14.3188 45.8099 14.7121 46.1018L22.4318 51.8315C22.8251 52.1234 23.3806 52.0412 23.6725 51.6479L34.9163 36.499C35.2082 36.1057 35.126 35.5502 34.7328 35.2583L27.013 29.5286C26.6197 29.2367 26.0643 29.3189 25.7724 29.7122Z" fill="#6BB3D9"/>
<path d="M26.6174 47.584L26.4653 47.7889C26.3959 47.8825 26.3086 47.9616 26.2086 48.0214C26.1085 48.0813 25.9976 48.1208 25.8823 48.1377C25.7669 48.1546 25.6494 48.1485 25.5363 48.1199C25.4233 48.0913 25.3171 48.0406 25.2237 47.9708L17.5038 42.2428C17.3593 42.1363 17.2507 41.9883 17.1924 41.8185C17.134 41.6488 17.1287 41.4653 17.1772 41.2925L14.5306 44.8584C14.3906 45.0473 14.3311 45.284 14.3651 45.5167C14.3991 45.7494 14.5238 45.9591 14.712 46.1001L22.4352 51.8281C22.5289 51.8976 22.6353 51.9478 22.7485 51.976C22.8617 52.0043 22.9793 52.0099 23.0946 51.9926C23.2099 51.9753 23.3207 51.9354 23.4206 51.8752C23.5205 51.8151 23.6076 51.7358 23.6768 51.6419L26.6542 47.6277C26.6419 47.6133 26.6281 47.5989 26.6174 47.584Z" fill="#4FA4D1"/>
</g>
<defs>
<clipPath id="clip0_6_9">
<rect width="1440" height="2400" fill="white" transform="translate(-821 -991)"/>
</clipPath>
</defs>
</svg>
