<svg width="98" height="98" viewBox="0 0 98 98" fill="none" xmlns="http://www.w3.org/2000/svg">
<rect width="98" height="98" fill="#E5E5E5"/>
<g clip-path="url(#clip0_6_9)">
<rect width="1440" height="2400" transform="translate(-221 -991)" fill="#FAF4F2"/>
<circle cx="49" cy="49" r="49" fill="#222222" fill-opacity="0.1"/>
<path d="M63.9862 22H29.1949C27.2792 22 25.7263 23.5529 25.7263 25.4687V31.7547C25.7263 33.6704 27.2793 35.2234 29.195 35.2234H32.5489L33.1223 35.7936H37.1855L37.8711 35.2234H63.9862C65.9019 35.2234 67.4548 33.6704 67.4548 31.7547V25.4687C67.4548 23.5529 65.9019 22 63.9862 22V22Z" fill="#95D6A4"/>
<path d="M31.9635 35.2234C32.4114 35.2234 32.7503 35.6287 32.6709 36.0695L31.8886 40.4134C31.8195 40.7969 32.2805 41.0456 32.5631 40.7774L38.2059 35.4208C38.3394 35.2941 38.5166 35.2234 38.7008 35.2234H31.9635Z" fill="#78C2A4"/>
<path d="M69.8049 22H63.313C65.2286 22 66.7817 23.5529 66.7817 25.4687V31.7547C66.7817 33.6704 65.2287 35.2234 63.3131 35.2234H60.2991C60.4832 35.2234 60.6603 35.2941 60.7939 35.4209L66.4368 40.7774C66.7193 41.0456 67.1803 40.7969 67.1113 40.4135L66.329 36.0696C66.2496 35.6288 66.5884 35.2234 67.0363 35.2234H69.8049C71.7206 35.2234 73.2736 33.6704 73.2736 31.7547V25.4687C73.2735 23.5529 71.7206 22 69.8049 22V22Z" fill="#78C2A4"/>
<path d="M29.7332 71.7046C29.2729 69.1428 31.1648 66.7582 33.7642 66.6242C36.0642 66.5055 37.8671 64.6041 37.8634 62.3011L37.8432 49.9552C37.8432 49.4339 37.8021 48.825 37.7089 48.2113C37.5702 47.3017 37.3871 46.7415 37.2508 46.3071H32.3824C28.8504 46.3071 25.9871 49.1705 25.9871 52.7025V72.0065H29.7875L29.7332 71.7046Z" fill="#D5985C"/>
<path d="M45.101 58.4269L43.7771 55.6479C43.6985 55.4829 43.6566 55.303 43.6544 55.1203L43.6292 53.0873C43.6292 50.5323 42.7441 48.1701 41.2629 46.3071H36.3333C36.3569 46.4871 36.3983 46.6664 36.4593 46.8424C36.8471 47.961 37.0581 49.1608 37.0581 50.4067L37.0771 62.0762C37.0807 64.2531 35.3765 66.0503 33.2025 66.1625C30.7455 66.2893 28.9572 68.5432 29.3923 70.9647L29.5796 72.0065H35.6061L35.1434 69.082C34.9868 68.092 35.7524 67.1963 36.7548 67.197L40.5307 67.1996C41.713 67.2014 42.6725 66.2435 42.6726 65.0612L42.6729 61.5216C42.673 60.8179 43.2376 60.2229 43.9411 60.2334C44.8789 60.2475 45.5036 59.2722 45.101 58.4269V58.4269Z" fill="#C38959"/>
<path d="M30.9128 61.3006V59.7372C30.9128 58.9042 31.2984 58.118 31.957 57.608L34.6417 55.5292C35.6436 54.7534 36.2301 53.5575 36.2301 52.2903C36.2301 50.9788 36.8473 49.8122 37.8061 49.0624C37.7841 48.7859 37.7523 48.5003 37.7088 48.2133C37.4874 46.762 37.1529 46.1998 37.0763 45.62H37.0769C37.0345 45.2971 37.0481 44.9719 37.1135 44.6564L36.7936 44.3894H32.8929C27.2523 44.3894 23.0379 49.5748 24.191 55.0963L25.9869 63.6962H28.5172C29.8403 63.6962 30.9128 62.6237 30.9128 61.3006V61.3006Z" fill="#6B61B1"/>
<path d="M43.7355 44.3877H36.7935C36.3076 45.1107 36.1712 46.0119 36.4592 46.8426C36.7878 47.7906 36.9879 48.7974 37.0417 49.8408C37.7886 48.8402 38.9817 48.1924 40.3262 48.1924H40.8423C42.6919 48.1924 44.1912 46.693 44.1912 44.8436C44.1914 44.5918 43.9873 44.3877 43.7355 44.3877V44.3877Z" fill="#5E54AC"/>
<path d="M29.8149 69.7533L25.4347 69.3317C24.7467 69.2655 24.1514 69.8063 24.1514 70.4974V71.8812C24.1514 72.5279 24.6757 73.0523 25.3225 73.0523H30.9108L31.2348 72.562V71.6297C31.2348 70.7388 30.6364 69.9862 29.8149 69.7533V69.7533Z" fill="#E28086"/>
<path d="M36.3439 70.3815L29.2429 69.698C30.1896 69.8369 30.9109 70.6508 30.9109 71.6294V73.052H36.2317C36.8785 73.052 37.4029 72.5277 37.4029 71.8809V71.5472C37.4028 70.9439 36.9444 70.4394 36.3439 70.3815Z" fill="#DD636E"/>
<path d="M63.3938 72.0067H67.2191V65.4615C67.2191 64.2866 67.3401 63.1148 67.5803 61.9647L68.3517 58.271L69.0151 55.0946C69.7132 51.7496 68.4417 48.3802 65.8336 46.3074H57.7371C56.2558 48.1704 55.3708 50.5326 55.3708 53.0876L55.3455 55.1206C55.3433 55.3033 55.3014 55.4833 55.2229 55.6482L53.899 58.4273C53.4964 59.2726 54.1211 60.2478 55.059 60.2337C55.7625 60.223 56.3271 60.8182 56.3271 61.5219L56.3274 65.0614C56.3275 66.2437 57.2869 67.2017 58.4693 67.1999L62.2452 67.1973C63.2476 67.1966 64.0131 68.0922 63.8566 69.0822L63.3938 72.0067Z" fill="#FFDDCE"/>
<path d="M66.6179 46.3074H65.1357C67.6561 48.3105 69.0394 51.6366 68.3173 55.0946L66.8825 61.9647C66.6423 63.1148 66.5212 64.2866 66.5212 65.4615V72.0067H73.0132V52.7027C73.0132 49.1707 70.15 46.3074 66.6179 46.3074V46.3074Z" fill="#FFCBBE"/>
<path d="M68.0816 59.5653L68.3518 58.2713L69.0152 55.0948C69.7133 51.7498 68.4417 48.3804 65.8337 46.3076C64.3298 45.1123 62.4212 44.3879 60.3132 44.3879H55.2645C55.0127 44.3879 54.8086 44.5921 54.8086 44.8438C54.8086 46.6934 56.308 48.1927 58.1574 48.1927H58.6736C60.9359 48.1927 62.7699 50.0266 62.7699 52.2889C62.7699 53.5562 63.3564 54.7519 64.3583 55.5278L67.0431 57.6066C67.6567 58.0815 68.0328 58.7963 68.0816 59.5653V59.5653Z" fill="#E49542"/>
<path d="M66.1072 44.3877H59.6152C65.2558 44.3877 69.4702 49.5731 68.3171 55.0946L67.6537 58.271C67.933 58.702 68.0873 59.2093 68.0873 59.7355V61.299C68.0873 62.622 69.1598 63.6945 70.4828 63.6945H73.0131L74.809 55.0946C75.9622 49.5731 71.7477 44.3877 66.1072 44.3877V44.3877Z" fill="#E27D47"/>
<path d="M66.7794 69.9846L62.6563 70.3815C62.0557 70.4393 61.5974 70.9438 61.5974 71.5472V71.8809C61.5974 72.5277 62.1217 73.0521 62.7684 73.0521H68.3567L68.4398 72.7872V71.7496C68.4397 70.7997 67.6957 70.0409 66.7794 69.9846V69.9846Z" fill="#B1E4F9"/>
<path d="M73.5654 69.3317L66.4858 70.0132C67.4943 69.9459 68.3567 70.7442 68.3567 71.7622V73.0523H73.6776C74.3243 73.0523 74.8487 72.528 74.8487 71.8812V70.4973C74.8487 69.8063 74.2533 69.2655 73.5654 69.3317V69.3317Z" fill="#90D8F9"/>
<path d="M67.3897 27.2353H31.6112C31.1857 27.2353 30.8408 26.8904 30.8408 26.465C30.8408 26.0395 31.1857 25.6946 31.6112 25.6946H67.3898C67.8154 25.6946 68.1602 26.0395 68.1602 26.465C68.1602 26.8904 67.8153 27.2353 67.3897 27.2353V27.2353Z" fill="#F0F7FF"/>
<path d="M49.5 31.1108H31.6107C31.1852 31.1108 30.8403 30.7659 30.8403 30.3404C30.8403 29.9149 31.1852 29.5701 31.6107 29.5701H49.5C49.9255 29.5701 50.2704 29.915 50.2704 30.3404C50.2704 30.7659 49.9255 31.1108 49.5 31.1108Z" fill="#F0F7FF"/>
</g>
<defs>
<clipPath id="clip0_6_9">
<rect width="1440" height="2400" fill="white" transform="translate(-221 -991)"/>
</clipPath>
</defs>
</svg>
