<svg width="98" height="98" viewBox="0 0 98 98" fill="none" xmlns="http://www.w3.org/2000/svg">
<rect width="98" height="98" fill="#E5E5E5"/>
<g clip-path="url(#clip0_6_9)">
<rect width="1440" height="2400" transform="translate(-521 -991)" fill="#FAF4F2"/>
<circle cx="49" cy="49" r="49" fill="#222222" fill-opacity="0.1"/>
<path d="M49.0083 56.4608C49.0083 56.1574 49.2543 55.9117 49.5577 55.9117H50.7218C50.2921 55.9117 49.9435 55.5633 49.9435 55.1334V48.2076H48.9088C48.9211 48.3312 48.8818 48.4589 48.7873 48.5536L47.7734 49.5675C47.6059 49.735 47.3341 49.735 47.1666 49.5675L45.261 47.6619L47.3465 58.145H50.6925C49.7623 58.145 49.0083 57.391 49.0083 56.4608Z" fill="#DAE6F1"/>
<path d="M43.8934 53.3164C43.8622 53.237 43.8717 53.1472 43.9192 53.0762L44.4689 52.2514C44.547 52.1341 44.5181 51.976 44.4035 51.8943L43.3835 51.1658C43.3123 51.1149 43.2711 51.0316 43.2744 50.9441L43.3967 47.5203C43.3086 47.5448 43.2208 47.5702 43.1321 47.5924L39.8979 48.4065C38.9555 48.6438 38.2767 49.4663 38.2228 50.4365L37.7756 58.1452H45.7894L43.8934 53.3164Z" fill="#3A70BF"/>
<path d="M45.2608 47.6618L44.9008 47.3018C44.8265 47.2275 44.7871 47.1327 44.7786 47.0359C44.3296 47.2281 43.8676 47.3888 43.3969 47.52L43.2746 50.9438C43.2715 51.0313 43.3125 51.1146 43.3837 51.1655L44.4037 51.894C44.5183 51.9759 44.5472 52.134 44.4691 52.2511L43.9194 53.0759C43.872 53.1469 43.8624 53.2367 43.8936 53.3161L45.7897 58.1449H47.3464L45.2608 47.6618Z" fill="#5290DB"/>
<path d="M48.9087 48.2075C48.9209 48.3312 48.8817 48.4588 48.7872 48.5536L47.9375 49.4032L47.9589 49.457L48.7246 50.6055H49.9432V48.2075H48.9087Z" fill="#FC657E"/>
<path d="M49.0082 56.4608C49.0082 56.1574 49.2542 55.9116 49.5576 55.9116H50.7217C50.292 55.9116 49.9434 55.5633 49.9434 55.1334V50.6055H48.7246L47.3464 58.145H50.6924C49.7622 58.145 49.0082 57.391 49.0082 56.4608Z" fill="#FC657E"/>
<path d="M49.8133 50.1269H48.9805L48.3569 49.1915C48.2105 48.9718 47.913 48.9124 47.6933 49.0588C47.4735 49.2055 47.414 49.5025 47.5606 49.7224L48.3263 50.8709C48.4151 51.0039 48.5644 51.0839 48.7244 51.0839H49.8131C50.0774 51.0839 50.2916 50.8697 50.2916 50.6054C50.2916 50.3411 50.0776 50.1269 49.8133 50.1269Z" fill="#222222"/>
<path d="M48.805 50.1662C48.5465 50.1183 48.2959 50.2908 48.2484 50.5509L46.9007 57.9235C46.8531 58.1832 47.0254 58.4326 47.2855 58.4801C47.3144 58.4855 47.3435 58.4879 47.372 58.4879C47.5986 58.4879 47.7998 58.3262 47.8421 58.0954L49.1898 50.7228C49.2374 50.463 49.065 50.2136 48.805 50.1662Z" fill="#222222"/>
<path d="M70.1994 58.145H28.781C28.0617 58.145 27.4785 58.7282 27.4785 59.4475C27.4785 60.1668 28.0617 60.7501 28.781 60.7501H70.1996C70.9189 60.7501 71.5021 60.1668 71.5021 59.4475C71.502 58.7282 70.9187 58.145 70.1994 58.145Z" fill="#AD7753"/>
<path d="M28.9192 60.75C28.9734 61.8644 29.899 62.7598 31.026 62.7598H67.9542C69.0814 62.7598 70.0068 61.8644 70.061 60.75H28.9192Z" fill="#8E6244"/>
<path d="M67.9542 62.7595H31.0262C30.943 62.7595 30.8612 62.7532 30.7803 62.7437V71.8399C30.7803 72.2162 31.0854 72.5213 31.4617 72.5213H67.5188C67.8951 72.5213 68.2002 72.2162 68.2002 71.8399V62.7437C68.1194 62.7532 68.0377 62.7595 67.9542 62.7595Z" fill="#8E6244"/>
<path d="M48.7871 47.9469L46.5214 45.6813C46.3539 45.5138 46.0821 45.5138 45.9146 45.6813L44.9008 46.6952C44.7333 46.8626 44.7333 47.1344 44.9008 47.3019L47.1664 49.5676C47.3339 49.7351 47.6057 49.7351 47.7732 49.5676L48.7871 48.5537C48.9546 48.3862 48.9546 48.1144 48.7871 47.9469Z" fill="#EDF4FC"/>
<path d="M49.4902 44.5235C48.5565 44.5235 47.6747 44.2917 46.8976 43.885V44.8009C46.8976 45.155 46.8009 45.4942 46.6277 45.7876L48.7869 47.9468C48.8599 48.0198 48.8989 48.1124 48.9085 48.2075H49.9432V44.5031C49.7935 44.5151 49.6429 44.5235 49.4902 44.5235Z" fill="#F9D0B4"/>
<path d="M55.1169 33.795C55.1136 33.6353 54.9859 33.5038 54.8263 33.499C52.4885 33.4305 51.2566 32.5039 50.7832 32.04C50.654 31.9132 50.4454 31.9266 50.3328 32.0683C48.2773 34.6532 45.2453 34.2884 44.2256 34.075C44.0404 34.0361 43.8625 34.1759 43.8625 34.3652V38.8959C43.8625 41.9912 46.3949 44.5235 49.4901 44.5235C49.6426 44.5235 49.7935 44.5154 49.9431 44.5036V44.3462C49.9431 43.9163 50.2915 43.568 50.7214 43.568H52.6169C54.1221 42.5552 55.1176 40.8364 55.1176 38.8959V33.883C55.1178 33.8535 55.1176 33.8242 55.1169 33.795Z" fill="#F9D0B4"/>
<path d="M53.8938 27.8254C53.2941 27.8254 52.7335 27.9948 52.2517 28.2838C51.689 27.3446 50.6636 26.7104 49.4949 26.7104H47.8442C44.6494 26.7104 42.0354 29.3245 42.0354 32.5192V35.122C42.4374 34.8002 42.9465 34.6069 43.5014 34.6069C43.6243 34.6069 43.7447 34.6173 43.8626 34.6354V34.365C43.8628 34.1757 44.0404 34.0359 44.2257 34.0748C45.2451 34.2882 48.2773 34.653 50.3329 32.0681C50.4454 31.9265 50.654 31.9131 50.7832 32.0398C51.2566 32.5037 52.4883 33.4303 54.8263 33.4989C54.9859 33.5036 55.1136 33.6351 55.1169 33.7948C55.1174 33.8241 55.1178 33.8533 55.1178 33.8828V34.6356C55.2355 34.6174 55.3561 34.6071 55.479 34.6071C56.1124 34.6071 56.686 34.8588 57.1086 35.2663V31.0399C57.1084 29.2718 55.6618 27.8254 53.8938 27.8254Z" fill="#754E34"/>
<path d="M55.4789 34.6069C55.356 34.6069 55.2356 34.6173 55.1177 34.6356V38.896C55.1177 39.0229 55.1119 39.1484 55.1035 39.2734C55.226 39.2931 55.3508 39.3061 55.4789 39.3061C56.7764 39.3061 57.8284 38.2542 57.8284 36.9566C57.8284 35.6589 56.7764 34.6069 55.4789 34.6069Z" fill="#F9D0B4"/>
<path d="M43.8628 38.896V34.6356C43.7451 34.6175 43.6245 34.6069 43.5016 34.6069C42.2041 34.6069 41.1521 35.6589 41.1521 36.9564C41.1521 38.254 42.2041 39.306 43.5016 39.306C43.6297 39.306 43.7545 39.2929 43.877 39.2732C43.8685 39.1484 43.8628 39.0229 43.8628 38.896Z" fill="#F9D0B4"/>
<path d="M51.4804 39.8643C51.2781 39.6945 50.9759 39.7213 50.8065 39.9238C50.5534 40.2257 50.1205 40.4062 49.6485 40.4062C49.1764 40.4062 48.7435 40.2258 48.4904 39.9236C48.3201 39.7207 48.0188 39.6947 47.8163 39.8643C47.6138 40.0341 47.5874 40.3359 47.757 40.5384C48.1899 41.0546 48.897 41.363 49.6485 41.363C50.4003 41.363 51.1074 41.0548 51.5399 40.5382C51.7097 40.3357 51.6831 40.0341 51.4804 39.8643Z" fill="#222222"/>
<path d="M51.9838 36.5361C51.5871 36.5361 51.2654 36.8578 51.2654 37.2546C51.2654 37.6514 51.5871 37.9731 51.9838 37.9731C52.3806 37.9731 52.7023 37.6514 52.7023 37.2546C52.7023 36.8578 52.3806 36.5361 51.9838 36.5361Z" fill="#222222"/>
<path d="M47.1611 36.5361C46.7643 36.5361 46.4426 36.8578 46.4426 37.2546C46.4426 37.6514 46.7643 37.9731 47.1611 37.9731C47.5579 37.9731 47.8796 37.6514 47.8796 37.2546C47.8796 36.8578 47.5579 36.5361 47.1611 36.5361Z" fill="#222222"/>
<path d="M41.7366 51.822C41.4722 51.822 41.2581 52.0362 41.2581 52.3005V57.7786C41.2581 58.0429 41.4722 58.2571 41.7366 58.2571C42.0009 58.2571 42.2151 58.0429 42.2151 57.7786V52.3005C42.2151 52.0364 42.0009 51.822 41.7366 51.822Z" fill="#222222"/>
<path d="M49.1251 47.6084L46.8597 45.3428C46.6882 45.1713 46.4604 45.0769 46.2179 45.0769C45.9754 45.0769 45.7476 45.1713 45.5761 45.3428L44.5622 46.3566C44.2081 46.7106 44.2081 47.2863 44.5622 47.6402L46.8279 49.9059C46.9994 50.0774 47.2272 50.1718 47.4697 50.1718C47.7122 50.1718 47.94 50.0774 48.1115 49.9059L49.1253 48.892C49.2968 48.7205 49.3914 48.4925 49.3914 48.2502C49.3912 48.0077 49.2966 47.7798 49.1251 47.6084ZM47.4697 49.1942L45.2739 46.9982L46.2179 46.0542L48.4137 48.2502L47.4697 49.1942Z" fill="#222222"/>
<path d="M49.7493 47.729H48.9851C48.7206 47.729 48.5063 47.9433 48.5063 48.2077C48.5063 48.4722 48.7206 48.6864 48.9851 48.6864H49.7493C50.0137 48.6864 50.228 48.4722 50.228 48.2077C50.228 47.9433 50.0136 47.729 49.7493 47.729Z" fill="#222222"/>
<path d="M46.8975 43.5486C46.6332 43.5486 46.419 43.7628 46.419 44.0271V44.8006C46.419 45.0345 46.3617 45.2678 46.2534 45.4759C46.1313 45.7103 46.2226 45.9992 46.4569 46.1213C46.5275 46.1578 46.6031 46.1754 46.6774 46.1754C46.85 46.1754 47.0167 46.0817 47.1023 45.9176C47.2814 45.5737 47.376 45.1874 47.376 44.8004V44.0269C47.376 43.7628 47.1618 43.5486 46.8975 43.5486Z" fill="#222222"/>
<path d="M45.1413 46.8844C45.0391 46.6405 44.7585 46.5251 44.5153 46.6279C44.0281 46.8318 43.5236 47.0002 43.0156 47.1281L39.7814 47.9421C38.6295 48.2321 37.8113 49.2238 37.7452 50.4088L37.3057 57.9869C37.2904 58.2507 37.492 58.4771 37.7559 58.4924C37.7653 58.493 37.7747 58.4932 37.7839 58.4932C38.0354 58.4932 38.2465 58.2968 38.2612 58.0424L38.7007 50.4631C38.7434 49.6977 39.2715 49.0576 40.0149 48.8706L43.2491 48.0564C43.8034 47.9168 44.3537 47.7333 44.8849 47.5107C45.1287 47.4085 45.2436 47.1281 45.1413 46.8844Z" fill="#222222"/>
<path d="M55.5953 33.7853C55.5871 33.3686 55.2555 33.0327 54.8406 33.0207C52.6327 32.956 51.5021 32.0743 51.1185 31.698C50.9602 31.543 50.7422 31.4603 50.5228 31.476C50.3021 31.4896 50.0964 31.5972 49.9588 31.7706C48.1029 34.104 45.4 33.8316 44.3239 33.6066C44.0935 33.5583 43.8548 33.6157 43.6711 33.765C43.4892 33.9126 43.3847 34.1314 43.3845 34.3689V38.8959C43.3845 42.2627 46.1237 45.0017 49.4906 45.0017C49.5903 45.0017 49.6894 44.9992 49.788 44.9947C50.052 44.9822 50.2558 44.7583 50.2434 44.4941C50.2309 44.2302 50.0028 44.0265 49.7428 44.0388C49.6592 44.0428 49.5752 44.0447 49.4908 44.0447C46.6516 44.0447 44.3417 41.735 44.3417 38.8959V34.5841C45.5019 34.7872 48.4868 35.0061 50.5887 32.5123C51.2113 33.0683 52.4725 33.8684 54.64 33.9706V38.8959C54.64 40.567 53.816 42.1435 52.4361 43.1126C52.2198 43.2645 52.1676 43.5629 52.3196 43.779C52.4715 43.9955 52.7701 44.0476 52.986 43.8956C54.6208 42.7475 55.597 40.8783 55.597 38.8957V33.8828L55.5953 33.7853Z" fill="#222222"/>
<path d="M53.8938 27.3471C53.3823 27.3471 52.8757 27.456 52.4064 27.665C51.7098 26.7718 50.6307 26.2322 49.4949 26.2322H47.8442C44.3774 26.2322 41.5569 29.0525 41.5569 32.5195V35.0018C41.5569 35.2662 41.7711 35.4804 42.0354 35.4804C42.2997 35.4804 42.5139 35.2662 42.5139 35.0018V32.5195C42.5139 29.5804 44.905 27.1892 47.8442 27.1892H49.4949C50.4466 27.1892 51.3456 27.7029 51.8411 28.53C51.9064 28.6387 52.0123 28.7174 52.1353 28.7482C52.2582 28.7792 52.3888 28.7599 52.4979 28.6944C52.9235 28.4393 53.4061 28.3043 53.8938 28.3043C55.4024 28.3043 56.6299 29.5316 56.6299 31.0403V35.1559C56.6299 35.4203 56.8441 35.6344 57.1085 35.6344C57.3728 35.6344 57.587 35.4203 57.587 35.1559V31.0401C57.587 29.0039 55.9302 27.3471 53.8938 27.3471Z" fill="#222222"/>
<path d="M55.4789 34.1287C55.4002 34.1287 55.3223 34.1323 55.2452 34.1388C54.982 34.1612 54.7866 34.393 54.8092 34.6564C54.8316 34.9196 55.0632 35.1133 55.3267 35.0924C55.3769 35.0882 55.4274 35.0857 55.4789 35.0857C56.5108 35.0857 57.3499 35.925 57.3499 36.9567C57.3499 37.9884 56.5106 38.8277 55.4789 38.8277C55.4219 38.8277 55.3658 38.8242 55.3103 38.8185C55.0481 38.7898 54.8122 38.982 54.7849 39.245C54.7573 39.5078 54.9483 39.7432 55.2113 39.7704C55.304 39.7801 55.3914 39.7847 55.4789 39.7847C57.0383 39.7847 58.3069 38.5161 58.3069 36.9567C58.3069 35.3973 57.0385 34.1287 55.4789 34.1287Z" fill="#222222"/>
<path d="M43.6436 38.821C43.5969 38.825 43.5497 38.8277 43.5016 38.8277C42.4697 38.8277 41.6306 37.9884 41.6306 36.9567C41.6306 35.925 42.4699 35.0857 43.5016 35.0857C43.551 35.0857 43.6 35.088 43.6482 35.0918C43.9145 35.1121 44.1424 34.9163 44.1633 34.6529C44.1842 34.3894 43.9878 34.1589 43.7244 34.1378C43.6507 34.1321 43.5768 34.1287 43.5016 34.1287C41.9422 34.1287 40.6736 35.3973 40.6736 36.9567C40.6736 38.5161 41.9422 39.7847 43.5016 39.7847C43.5784 39.7847 43.6542 39.7809 43.729 39.7742C43.9922 39.7506 44.1867 39.5183 44.1631 39.2549C44.1392 38.9917 43.9085 38.7959 43.6436 38.821Z" fill="#222222"/>
<path d="M64.8753 43.5681H50.7216C50.2919 43.5681 49.9434 43.9165 49.9434 44.3464V55.1336C49.9434 55.5635 50.2917 55.9119 50.7216 55.9119H64.8753C65.305 55.9119 65.6536 55.5635 65.6536 55.1336V44.3464C65.6536 43.9167 65.305 43.5681 64.8753 43.5681Z" fill="#EDF4FC"/>
<path d="M66.0394 55.9116H49.5576C49.2543 55.9116 49.0083 56.1576 49.0083 56.4608C49.0083 57.391 49.7623 58.1449 50.6925 58.1449H64.9044C65.8346 58.1449 66.5886 57.391 66.5886 56.4608C66.5886 56.1576 66.3428 55.9116 66.0394 55.9116Z" fill="#DAE6F1"/>
<path d="M59.1077 49.2615H56.4893C56.2249 49.2615 56.0107 49.4757 56.0107 49.74C56.0107 50.0043 56.2249 50.2185 56.4893 50.2185H59.1077C59.372 50.2185 59.5862 50.0043 59.5862 49.74C59.5862 49.4757 59.372 49.2615 59.1077 49.2615Z" fill="#222222"/>
<path d="M64.8752 43.0894H50.7216C50.0285 43.0894 49.4648 43.653 49.4648 44.3461V55.1332C49.4648 55.8261 50.0285 56.3898 50.7216 56.3898H64.8752C65.568 56.3898 66.1317 55.8261 66.1317 55.1332V44.3461C66.1317 43.6532 65.568 43.0894 64.8752 43.0894ZM65.1747 55.1334C65.1747 55.2986 65.0403 55.433 64.8752 55.433H50.7216C50.5564 55.433 50.4219 55.2986 50.4219 55.1334V44.3463C50.4219 44.1811 50.5564 44.0466 50.7216 44.0466H64.8752C65.0403 44.0466 65.1747 44.1811 65.1747 44.3463V55.1334Z" fill="#222222"/>
<path d="M66.0394 55.4331H49.5576C48.9909 55.4331 48.5298 55.8942 48.5298 56.461C48.5298 57.6534 49.4998 58.6237 50.6925 58.6237H64.9046C66.0971 58.6237 67.0673 57.6536 67.0673 56.461C67.0671 55.8942 66.6062 55.4331 66.0394 55.4331ZM64.9044 57.6666H50.6923C50.0273 57.6666 49.4866 57.1259 49.4866 56.461C49.4866 56.4219 49.5184 56.3901 49.5574 56.3901H66.0392C66.0781 56.3901 66.1099 56.4219 66.1099 56.461C66.1101 57.1257 65.5693 57.6666 64.9044 57.6666Z" fill="#222222"/>
<path d="M36.4945 48.3844C35.6332 48.2313 34.9632 47.5613 34.791 46.7191C34.791 46.6809 34.7144 46.6809 34.7144 46.7191C34.5421 47.5613 33.8722 48.2313 33.0109 48.3844C32.9726 48.3844 32.9726 48.4418 33.0109 48.4609C33.8722 48.6141 34.5421 49.284 34.7144 50.1262C34.7144 50.1645 34.791 50.1645 34.791 50.1262C34.9632 49.284 35.6332 48.6141 36.4945 48.4609C36.5328 48.442 36.5328 48.3844 36.4945 48.3844Z" fill="#F5C84C"/>
<path d="M62.633 39.3527C62.0287 39.2454 61.5586 38.7753 61.4377 38.1844C61.4377 38.1576 61.3839 38.1576 61.3839 38.1844C61.2631 38.7753 60.793 39.2454 60.1886 39.3527C60.1618 39.3527 60.1618 39.3929 60.1886 39.4065C60.7928 39.5141 61.2629 39.984 61.3839 40.5749C61.3839 40.6017 61.4377 40.6017 61.4377 40.5749C61.5586 39.984 62.0285 39.5139 62.633 39.4065C62.6598 39.3929 62.6598 39.3527 62.633 39.3527Z" fill="#70D6F9"/>
<path d="M61.8845 27.1863H61.4442V26.746C61.4442 26.4207 61.1763 26.1335 60.8317 26.1335C60.4872 26.1335 60.2192 26.4015 60.2192 26.746V27.1863H59.779C59.4536 27.1863 59.1665 27.4542 59.1665 27.7988C59.1665 28.1433 59.4345 28.4113 59.779 28.4113H60.2192V28.8515C60.2192 29.1769 60.4872 29.464 60.8317 29.464C61.1763 29.464 61.4442 29.196 61.4442 28.8515V28.4113H61.8845C62.2099 28.4113 62.497 28.1433 62.497 27.7988C62.497 27.4544 62.229 27.1863 61.8845 27.1863Z" fill="#87D147"/>
<path d="M33.0112 52.9023C32.6516 52.9023 32.3601 53.1938 32.3601 53.5534C32.3601 53.913 32.6516 54.2045 33.0112 54.2045C33.3708 54.2045 33.6622 53.913 33.6622 53.5534C33.6622 53.1938 33.3708 52.9023 33.0112 52.9023Z" fill="#FC657E"/>
<path d="M56.5446 24C56.185 24 55.8936 24.2914 55.8936 24.6511C55.8936 25.0107 56.185 25.3021 56.5446 25.3021C56.9042 25.3021 57.1957 25.0107 57.1957 24.6511C57.1957 24.2914 56.9042 24 56.5446 24Z" fill="#F5C84C"/>
<path d="M70.1994 57.6667H28.781C27.7989 57.6667 27 58.4657 27 59.4478C27 60.4299 27.7989 61.2288 28.781 61.2288H70.1996C71.1817 61.2288 71.9807 60.4299 71.9807 59.4478C71.9807 58.4657 71.1815 57.6667 70.1994 57.6667ZM70.1994 60.2716H28.781C28.3266 60.2716 27.957 59.902 27.957 59.4476C27.957 58.9932 28.3266 58.6236 28.781 58.6236H70.1996C70.654 58.6236 71.0236 58.9932 71.0236 59.4476C71.0236 59.902 70.6538 60.2716 70.1994 60.2716Z" fill="#222222"/>
<path d="M70.1039 60.409C69.8438 60.3788 69.6045 60.5681 69.5746 60.8309C69.4814 61.6578 68.7845 62.2814 67.954 62.2814H31.0262C30.1972 62.2814 29.4842 61.6339 29.4033 60.8074C29.3772 60.5444 29.1424 60.3533 28.8803 60.3778C28.6173 60.4037 28.425 60.6378 28.4508 60.9008C28.5817 62.2335 29.6888 63.2384 31.0262 63.2384H67.9542C69.2722 63.2384 70.3778 62.2496 70.5259 60.9381C70.5554 60.6755 70.3665 60.4387 70.1039 60.409Z" fill="#222222"/>
<path d="M68.2002 62.377C67.9359 62.377 67.7217 62.5911 67.7217 62.8555V71.8399C67.7217 71.9519 67.6306 72.043 67.5186 72.043H31.4619C31.3499 72.043 31.2588 71.9519 31.2588 71.8399V62.9154C31.2588 62.651 31.0446 62.4369 30.7803 62.4369C30.5159 62.4369 30.3018 62.651 30.3018 62.9154V71.8399C30.3018 72.4796 30.8222 73 31.4619 73H67.5188C68.1585 73 68.6789 72.4796 68.6789 71.8399V62.8555C68.6787 62.5911 68.4645 62.377 68.2002 62.377Z" fill="#222222"/>
<path d="M47.7887 57.9154L45.7372 47.604C45.6854 47.3448 45.4337 47.1773 45.1745 47.228C44.9153 47.2797 44.7471 47.5316 44.7986 47.7908L46.8501 58.1022C46.8954 58.3298 47.0953 58.4873 47.3188 58.4873C47.3498 58.4873 47.3812 58.4843 47.4128 58.4781C47.672 58.4267 47.8404 58.1748 47.7887 57.9154Z" fill="#222222"/>
<path d="M46.1812 57.8335L44.3803 53.2472L44.8672 52.517C45.09 52.183 45.0085 51.7385 44.6818 51.505L43.7569 50.8443L43.8712 47.6419C43.8807 47.3777 43.6742 47.1561 43.4101 47.1467C43.1532 47.1352 42.9243 47.3436 42.9149 47.6078L42.7964 50.9268C42.7872 51.176 42.9032 51.411 43.1055 51.5552L43.9542 52.1613L43.5209 52.8112C43.3875 53.0118 43.3599 53.2658 43.448 53.4918L45.2904 58.1838C45.3645 58.3723 45.545 58.4875 45.736 58.4875C45.7942 58.4875 45.8532 58.4768 45.9108 58.4542C46.1567 58.3572 46.2779 58.0794 46.1812 57.8335Z" fill="#222222"/>
</g>
<defs>
<clipPath id="clip0_6_9">
<rect width="1440" height="2400" fill="white" transform="translate(-521 -991)"/>
</clipPath>
</defs>
</svg>
